<svg
              width="631"
              height="26"
              viewBox="0 0 631 26"
              fill="none"
              xmlns="http://www.w3.org/2000/svg"
            >
              <path
                d="M18.72 7.992C18.144 6.936 17.352 6.132 16.344 5.58C15.336 5.028 14.16 4.752 12.816 4.752C11.328 4.752 10.008 5.088 8.856 5.76C7.704 6.432 6.804 7.392 6.156 8.64C5.508 9.888 5.184 11.328 5.184 12.96C5.184 14.64 5.508 16.104 6.156 17.352C6.828 18.6 7.752 19.56 8.928 20.232C10.104 20.904 11.472 21.24 13.032 21.24C14.952 21.24 16.524 20.736 17.748 19.728C18.972 18.696 19.776 17.268 20.16 15.444H11.52V11.592H25.128V15.984C24.792 17.736 24.072 19.356 22.968 20.844C21.864 22.332 20.436 23.532 18.684 24.444C16.956 25.332 15.012 25.776 12.852 25.776C10.428 25.776 8.232 25.236 6.264 24.156C4.32 23.052 2.784 21.528 1.656 19.584C0.552 17.64 0 15.432 0 12.96C0 10.488 0.552 8.28 1.656 6.336C2.784 4.368 4.32 2.844 6.264 1.764C8.232 0.660001 10.416 0.108001 12.816 0.108001C15.648 0.108001 18.108 0.804 20.196 2.196C22.284 3.564 23.724 5.496 24.516 7.992H18.72Z"
                fill="#CCCCCC"
              />
              <path
                d="M39.6568 4.5V10.8H48.1168V14.796H39.6568V21.456H49.1968V25.56H34.6168V0.395999H49.1968V4.5H39.6568Z"
                fill="#CCCCCC"
              />
              <path
                d="M76.637 0.432001V4.5H69.941V25.56H64.901V4.5H58.205V0.432001H76.637Z"
                fill="#CCCCCC"
              />
              <path
                d="M113.372 25.56L107.828 15.768H105.452V25.56H100.412V0.432001H109.844C111.788 0.432001 113.444 0.780001 114.812 1.476C116.18 2.148 117.2 3.072 117.872 4.248C118.568 5.4 118.916 6.696 118.916 8.136C118.916 9.792 118.436 11.292 117.476 12.636C116.516 13.956 115.088 14.868 113.192 15.372L119.204 25.56H113.372ZM105.452 11.988H109.664C111.032 11.988 112.052 11.664 112.724 11.016C113.396 10.344 113.732 9.42 113.732 8.244C113.732 7.092 113.396 6.204 112.724 5.58C112.052 4.932 111.032 4.608 109.664 4.608H105.452V11.988Z"
                fill="#CCCCCC"
              />
              <path
                d="M134.275 4.5V10.8H142.735V14.796H134.275V21.456H143.815V25.56H129.235V0.395999H143.815V4.5H134.275Z"
                fill="#CCCCCC"
              />
              <path
                d="M169.563 20.772H159.555L157.899 25.56H152.607L161.643 0.395999H167.511L176.547 25.56H171.219L169.563 20.772ZM168.195 16.74L164.559 6.228L160.923 16.74H168.195Z"
                fill="#CCCCCC"
              />
              <path
                d="M194.469 0.432001C197.109 0.432001 199.425 0.948001 201.417 1.98C203.433 3.012 204.981 4.488 206.061 6.408C207.165 8.304 207.717 10.512 207.717 13.032C207.717 15.552 207.165 17.76 206.061 19.656C204.981 21.528 203.433 22.98 201.417 24.012C199.425 25.044 197.109 25.56 194.469 25.56H185.685V0.432001H194.469ZM194.289 21.276C196.929 21.276 198.969 20.556 200.409 19.116C201.849 17.676 202.569 15.648 202.569 13.032C202.569 10.416 201.849 8.376 200.409 6.912C198.969 5.424 196.929 4.68 194.289 4.68H190.725V21.276H194.289Z"
                fill="#CCCCCC"
              />
              <path
                d="M237.229 0.432001L228.733 16.812V25.56H223.693V16.812L215.161 0.432001H220.849L226.249 11.916L231.613 0.432001H237.229Z"
                fill="#CCCCCC"
              />
              <path
                d="M275.75 0.432001V4.5H265.274V10.944H273.302V14.94H265.274V25.56H260.234V0.432001H275.75Z"
                fill="#CCCCCC"
              />
              <path
                d="M296.748 25.812C294.396 25.812 292.236 25.26 290.268 24.156C288.3 23.052 286.74 21.528 285.588 19.584C284.436 17.616 283.86 15.396 283.86 12.924C283.86 10.476 284.436 8.28 285.588 6.336C286.74 4.368 288.3 2.832 290.268 1.728C292.236 0.624001 294.396 0.0720015 296.748 0.0720015C299.124 0.0720015 301.284 0.624001 303.228 1.728C305.196 2.832 306.744 4.368 307.872 6.336C309.024 8.28 309.6 10.476 309.6 12.924C309.6 15.396 309.024 17.616 307.872 19.584C306.744 21.528 305.196 23.052 303.228 24.156C301.26 25.26 299.1 25.812 296.748 25.812ZM296.748 21.312C298.26 21.312 299.592 20.976 300.744 20.304C301.896 19.608 302.796 18.624 303.444 17.352C304.092 16.08 304.416 14.604 304.416 12.924C304.416 11.244 304.092 9.78 303.444 8.532C302.796 7.26 301.896 6.288 300.744 5.616C299.592 4.944 298.26 4.608 296.748 4.608C295.236 4.608 293.892 4.944 292.716 5.616C291.564 6.288 290.664 7.26 290.016 8.532C289.368 9.78 289.044 11.244 289.044 12.924C289.044 14.604 289.368 16.08 290.016 17.352C290.664 18.624 291.564 19.608 292.716 20.304C293.892 20.976 295.236 21.312 296.748 21.312Z"
                fill="#CCCCCC"
              />
              <path
                d="M332.07 25.56L326.526 15.768H324.15V25.56H319.11V0.432001H328.542C330.486 0.432001 332.142 0.780001 333.51 1.476C334.878 2.148 335.898 3.072 336.57 4.248C337.266 5.4 337.614 6.696 337.614 8.136C337.614 9.792 337.134 11.292 336.174 12.636C335.214 13.956 333.786 14.868 331.89 15.372L337.902 25.56H332.07ZM324.15 11.988H328.362C329.73 11.988 330.75 11.664 331.422 11.016C332.094 10.344 332.43 9.42 332.43 8.244C332.43 7.092 332.094 6.204 331.422 5.58C330.75 4.932 329.73 4.608 328.362 4.608H324.15V11.988Z"
                fill="#CCCCCC"
              />
              <path
                d="M379.37 0.432001V4.5H372.674V25.56H367.634V4.5H360.938V0.432001H379.37Z"
                fill="#CCCCCC"
              />
              <path
                d="M409.652 0.432001V25.56H404.612V14.868H393.848V25.56H388.808V0.432001H393.848V10.764H404.612V0.432001H409.652Z"
                fill="#CCCCCC"
              />
              <path
                d="M425.412 4.5V10.8H433.872V14.796H425.412V21.456H434.952V25.56H420.372V0.395999H434.952V4.5H425.412Z"
                fill="#CCCCCC"
              />
              <path
                d="M472.591 25.56L467.047 15.768H464.671V25.56H459.631V0.432001H469.063C471.007 0.432001 472.663 0.780001 474.031 1.476C475.399 2.148 476.419 3.072 477.091 4.248C477.787 5.4 478.135 6.696 478.135 8.136C478.135 9.792 477.655 11.292 476.695 12.636C475.735 13.956 474.307 14.868 472.411 15.372L478.423 25.56H472.591ZM464.671 11.988H468.883C470.251 11.988 471.271 11.664 471.943 11.016C472.615 10.344 472.951 9.42 472.951 8.244C472.951 7.092 472.615 6.204 471.943 5.58C471.271 4.932 470.251 4.608 468.883 4.608H464.671V11.988Z"
                fill="#CCCCCC"
              />
              <path
                d="M493.493 4.5V10.8H501.953V14.796H493.493V21.456H503.033V25.56H488.453V0.395999H503.033V4.5H493.493Z"
                fill="#CCCCCC"
              />
              <path
                d="M535.945 0.432001L526.729 25.56H520.609L511.393 0.432001H516.793L523.705 20.412L530.581 0.432001H535.945Z"
                fill="#CCCCCC"
              />
              <path
                d="M549.767 4.5V10.8H558.227V14.796H549.767V21.456H559.307V25.56H544.727V0.395999H559.307V4.5H549.767Z"
                fill="#CCCCCC"
              />
              <path
                d="M585.055 20.772H575.047L573.391 25.56H568.099L577.135 0.395999H583.003L592.039 25.56H586.711L585.055 20.772ZM583.687 16.74L580.051 6.228L576.415 16.74H583.687Z"
                fill="#CCCCCC"
              />
              <path
                d="M606.217 21.564H614.497V25.56H601.177V0.432001H606.217V21.564Z"
                fill="#CCCCCC"
              />
              <path
                d="M629.976 0L629.4 17.388H625.152L624.54 0H629.976ZM627.384 25.812C626.472 25.812 625.716 25.536 625.116 24.984C624.54 24.408 624.252 23.7 624.252 22.86C624.252 22.02 624.54 21.324 625.116 20.772C625.716 20.196 626.472 19.908 627.384 19.908C628.272 19.908 629.004 20.196 629.58 20.772C630.156 21.324 630.444 22.02 630.444 22.86C630.444 23.7 630.156 24.408 629.58 24.984C629.004 25.536 628.272 25.812 627.384 25.812Z"
                fill="#CCCCCC"
              />
              <g clip-path="url(#clip0_25_3143)">
                <mask
                  id="mask0_25_3143"
                  maskUnits="userSpaceOnUse"
                  x="0"
                  y="0"
                  width="631"
                  height="26"
                >
                  <path
                    d="M18.72 7.992C18.144 6.936 17.352 6.132 16.344 5.58C15.336 5.028 14.16 4.752 12.816 4.752C11.328 4.752 10.008 5.088 8.856 5.76C7.704 6.432 6.804 7.392 6.156 8.64C5.508 9.888 5.184 11.328 5.184 12.96C5.184 14.64 5.508 16.104 6.156 17.352C6.828 18.6 7.752 19.56 8.928 20.232C10.104 20.904 11.472 21.24 13.032 21.24C14.952 21.24 16.524 20.736 17.748 19.728C18.972 18.696 19.776 17.268 20.16 15.444H11.52V11.592H25.128V15.984C24.792 17.736 24.072 19.356 22.968 20.844C21.864 22.332 20.436 23.532 18.684 24.444C16.956 25.332 15.012 25.776 12.852 25.776C10.428 25.776 8.232 25.236 6.264 24.156C4.32 23.052 2.784 21.528 1.656 19.584C0.552 17.64 0 15.432 0 12.96C0 10.488 0.552 8.28 1.656 6.336C2.784 4.368 4.32 2.844 6.264 1.764C8.232 0.660001 10.416 0.108001 12.816 0.108001C15.648 0.108001 18.108 0.804 20.196 2.196C22.284 3.564 23.724 5.496 24.516 7.992H18.72Z"
                    fill="url(#paint0_linear_25_3143)"
                  />
                  <path
                    d="M39.6568 4.5V10.8H48.1168V14.796H39.6568V21.456H49.1968V25.56H34.6168V0.395999H49.1968V4.5H39.6568Z"
                    fill="url(#paint1_linear_25_3143)"
                  />
                  <path
                    d="M76.637 0.432001V4.5H69.941V25.56H64.901V4.5H58.205V0.432001H76.637Z"
                    fill="url(#paint2_linear_25_3143)"
                  />
                  <path
                    d="M113.372 25.56L107.828 15.768H105.452V25.56H100.412V0.432001H109.844C111.788 0.432001 113.444 0.780001 114.812 1.476C116.18 2.148 117.2 3.072 117.872 4.248C118.568 5.4 118.916 6.696 118.916 8.136C118.916 9.792 118.436 11.292 117.476 12.636C116.516 13.956 115.088 14.868 113.192 15.372L119.204 25.56H113.372ZM105.452 11.988H109.664C111.032 11.988 112.052 11.664 112.724 11.016C113.396 10.344 113.732 9.42 113.732 8.244C113.732 7.092 113.396 6.204 112.724 5.58C112.052 4.932 111.032 4.608 109.664 4.608H105.452V11.988Z"
                    fill="url(#paint3_linear_25_3143)"
                  />
                  <path
                    d="M134.275 4.5V10.8H142.735V14.796H134.275V21.456H143.815V25.56H129.235V0.395999H143.815V4.5H134.275Z"
                    fill="url(#paint4_linear_25_3143)"
                  />
                  <path
                    d="M169.563 20.772H159.555L157.899 25.56H152.607L161.643 0.395999H167.511L176.547 25.56H171.219L169.563 20.772ZM168.195 16.74L164.559 6.228L160.923 16.74H168.195Z"
                    fill="url(#paint5_linear_25_3143)"
                  />
                  <path
                    d="M194.469 0.432001C197.109 0.432001 199.425 0.948001 201.417 1.98C203.433 3.012 204.981 4.488 206.061 6.408C207.165 8.304 207.717 10.512 207.717 13.032C207.717 15.552 207.165 17.76 206.061 19.656C204.981 21.528 203.433 22.98 201.417 24.012C199.425 25.044 197.109 25.56 194.469 25.56H185.685V0.432001H194.469ZM194.289 21.276C196.929 21.276 198.969 20.556 200.409 19.116C201.849 17.676 202.569 15.648 202.569 13.032C202.569 10.416 201.849 8.376 200.409 6.912C198.969 5.424 196.929 4.68 194.289 4.68H190.725V21.276H194.289Z"
                    fill="url(#paint6_linear_25_3143)"
                  />
                  <path
                    d="M237.229 0.432001L228.733 16.812V25.56H223.693V16.812L215.161 0.432001H220.849L226.249 11.916L231.613 0.432001H237.229Z"
                    fill="url(#paint7_linear_25_3143)"
                  />
                  <path
                    d="M275.75 0.432001V4.5H265.274V10.944H273.302V14.94H265.274V25.56H260.234V0.432001H275.75Z"
                    fill="url(#paint8_linear_25_3143)"
                  />
                  <path
                    d="M296.748 25.812C294.396 25.812 292.236 25.26 290.268 24.156C288.3 23.052 286.74 21.528 285.588 19.584C284.436 17.616 283.86 15.396 283.86 12.924C283.86 10.476 284.436 8.28 285.588 6.336C286.74 4.368 288.3 2.832 290.268 1.728C292.236 0.624001 294.396 0.0720015 296.748 0.0720015C299.124 0.0720015 301.284 0.624001 303.228 1.728C305.196 2.832 306.744 4.368 307.872 6.336C309.024 8.28 309.6 10.476 309.6 12.924C309.6 15.396 309.024 17.616 307.872 19.584C306.744 21.528 305.196 23.052 303.228 24.156C301.26 25.26 299.1 25.812 296.748 25.812ZM296.748 21.312C298.26 21.312 299.592 20.976 300.744 20.304C301.896 19.608 302.796 18.624 303.444 17.352C304.092 16.08 304.416 14.604 304.416 12.924C304.416 11.244 304.092 9.78 303.444 8.532C302.796 7.26 301.896 6.288 300.744 5.616C299.592 4.944 298.26 4.608 296.748 4.608C295.236 4.608 293.892 4.944 292.716 5.616C291.564 6.288 290.664 7.26 290.016 8.532C289.368 9.78 289.044 11.244 289.044 12.924C289.044 14.604 289.368 16.08 290.016 17.352C290.664 18.624 291.564 19.608 292.716 20.304C293.892 20.976 295.236 21.312 296.748 21.312Z"
                    fill="url(#paint9_linear_25_3143)"
                  />
                  <path
                    d="M332.07 25.56L326.526 15.768H324.15V25.56H319.11V0.432001H328.542C330.486 0.432001 332.142 0.780001 333.51 1.476C334.878 2.148 335.898 3.072 336.57 4.248C337.266 5.4 337.614 6.696 337.614 8.136C337.614 9.792 337.134 11.292 336.174 12.636C335.214 13.956 333.786 14.868 331.89 15.372L337.902 25.56H332.07ZM324.15 11.988H328.362C329.73 11.988 330.75 11.664 331.422 11.016C332.094 10.344 332.43 9.42 332.43 8.244C332.43 7.092 332.094 6.204 331.422 5.58C330.75 4.932 329.73 4.608 328.362 4.608H324.15V11.988Z"
                    fill="url(#paint10_linear_25_3143)"
                  />
                  <path
                    d="M379.37 0.432001V4.5H372.674V25.56H367.634V4.5H360.938V0.432001H379.37Z"
                    fill="url(#paint11_linear_25_3143)"
                  />
                  <path
                    d="M409.652 0.432001V25.56H404.612V14.868H393.848V25.56H388.808V0.432001H393.848V10.764H404.612V0.432001H409.652Z"
                    fill="url(#paint12_linear_25_3143)"
                  />
                  <path
                    d="M425.412 4.5V10.8H433.872V14.796H425.412V21.456H434.952V25.56H420.372V0.395999H434.952V4.5H425.412Z"
                    fill="url(#paint13_linear_25_3143)"
                  />
                  <path
                    d="M472.591 25.56L467.047 15.768H464.671V25.56H459.631V0.432001H469.063C471.007 0.432001 472.663 0.780001 474.031 1.476C475.399 2.148 476.419 3.072 477.091 4.248C477.787 5.4 478.135 6.696 478.135 8.136C478.135 9.792 477.655 11.292 476.695 12.636C475.735 13.956 474.307 14.868 472.411 15.372L478.423 25.56H472.591ZM464.671 11.988H468.883C470.251 11.988 471.271 11.664 471.943 11.016C472.615 10.344 472.951 9.42 472.951 8.244C472.951 7.092 472.615 6.204 471.943 5.58C471.271 4.932 470.251 4.608 468.883 4.608H464.671V11.988Z"
                    fill="url(#paint14_linear_25_3143)"
                  />
                  <path
                    d="M493.493 4.5V10.8H501.953V14.796H493.493V21.456H503.033V25.56H488.453V0.395999H503.033V4.5H493.493Z"
                    fill="url(#paint15_linear_25_3143)"
                  />
                  <path
                    d="M535.945 0.432001L526.729 25.56H520.609L511.393 0.432001H516.793L523.705 20.412L530.581 0.432001H535.945Z"
                    fill="url(#paint16_linear_25_3143)"
                  />
                  <path
                    d="M549.767 4.5V10.8H558.227V14.796H549.767V21.456H559.307V25.56H544.727V0.395999H559.307V4.5H549.767Z"
                    fill="url(#paint17_linear_25_3143)"
                  />
                  <path
                    d="M585.055 20.772H575.047L573.391 25.56H568.099L577.135 0.395999H583.003L592.039 25.56H586.711L585.055 20.772ZM583.687 16.74L580.051 6.228L576.415 16.74H583.687Z"
                    fill="url(#paint18_linear_25_3143)"
                  />
                  <path
                    d="M606.217 21.564H614.497V25.56H601.177V0.432001H606.217V21.564Z"
                    fill="url(#paint19_linear_25_3143)"
                  />
                  <path
                    d="M629.976 0L629.4 17.388H625.152L624.54 0H629.976ZM627.384 25.812C626.472 25.812 625.716 25.536 625.116 24.984C624.54 24.408 624.252 23.7 624.252 22.86C624.252 22.02 624.54 21.324 625.116 20.772C625.716 20.196 626.472 19.908 627.384 19.908C628.272 19.908 629.004 20.196 629.58 20.772C630.156 21.324 630.444 22.02 630.444 22.86C630.444 23.7 630.156 24.408 629.58 24.984C629.004 25.536 628.272 25.812 627.384 25.812Z"
                    fill="url(#paint20_linear_25_3143)"
                  />
                </mask>
                <g mask="url(#mask0_25_3143)">
                  <g>
                    <path
                      d="M-18 -11.5L11.5 43.5"
                      stroke="white"
                      stroke-width="4"
                    />
                  </g>
                  <g>
                    <path d="M-24 -7L5.5 48" stroke="white" stroke-width="4" />
                  </g>
                </g>
              </g>
              <defs>
                <linearGradient
                  id="paint0_linear_25_3143"
                  x1="0.221191"
                  y1="12.9782"
                  x2="633.721"
                  y2="12.9781"
                  gradientUnits="userSpaceOnUse"
                >
                  <stop stop-color="#B3B3B3" />
                  <stop offset="1" stop-color="#808080" />
                </linearGradient>
                <linearGradient
                  id="paint1_linear_25_3143"
                  x1="0.221191"
                  y1="12.9782"
                  x2="633.721"
                  y2="12.9781"
                  gradientUnits="userSpaceOnUse"
                >
                  <stop stop-color="#B3B3B3" />
                  <stop offset="1" stop-color="#808080" />
                </linearGradient>
                <linearGradient
                  id="paint2_linear_25_3143"
                  x1="0.221191"
                  y1="12.9782"
                  x2="633.721"
                  y2="12.9781"
                  gradientUnits="userSpaceOnUse"
                >
                  <stop stop-color="#B3B3B3" />
                  <stop offset="1" stop-color="#808080" />
                </linearGradient>
                <linearGradient
                  id="paint3_linear_25_3143"
                  x1="0.221191"
                  y1="12.9782"
                  x2="633.721"
                  y2="12.9781"
                  gradientUnits="userSpaceOnUse"
                >
                  <stop stop-color="#B3B3B3" />
                  <stop offset="1" stop-color="#808080" />
                </linearGradient>
                <linearGradient
                  id="paint4_linear_25_3143"
                  x1="0.221191"
                  y1="12.9782"
                  x2="633.721"
                  y2="12.9781"
                  gradientUnits="userSpaceOnUse"
                >
                  <stop stop-color="#B3B3B3" />
                  <stop offset="1" stop-color="#808080" />
                </linearGradient>
                <linearGradient
                  id="paint5_linear_25_3143"
                  x1="0.221191"
                  y1="12.9782"
                  x2="633.721"
                  y2="12.9781"
                  gradientUnits="userSpaceOnUse"
                >
                  <stop stop-color="#B3B3B3" />
                  <stop offset="1" stop-color="#808080" />
                </linearGradient>
                <linearGradient
                  id="paint6_linear_25_3143"
                  x1="0.221191"
                  y1="12.9782"
                  x2="633.721"
                  y2="12.9781"
                  gradientUnits="userSpaceOnUse"
                >
                  <stop stop-color="#B3B3B3" />
                  <stop offset="1" stop-color="#808080" />
                </linearGradient>
                <linearGradient
                  id="paint7_linear_25_3143"
                  x1="0.221191"
                  y1="12.9782"
                  x2="633.721"
                  y2="12.9781"
                  gradientUnits="userSpaceOnUse"
                >
                  <stop stop-color="#B3B3B3" />
                  <stop offset="1" stop-color="#808080" />
                </linearGradient>
                <linearGradient
                  id="paint8_linear_25_3143"
                  x1="0.221191"
                  y1="12.9782"
                  x2="633.721"
                  y2="12.9781"
                  gradientUnits="userSpaceOnUse"
                >
                  <stop stop-color="#B3B3B3" />
                  <stop offset="1" stop-color="#808080" />
                </linearGradient>
                <linearGradient
                  id="paint9_linear_25_3143"
                  x1="0.221191"
                  y1="12.9782"
                  x2="633.721"
                  y2="12.9781"
                  gradientUnits="userSpaceOnUse"
                >
                  <stop stop-color="#B3B3B3" />
                  <stop offset="1" stop-color="#808080" />
                </linearGradient>
                <linearGradient
                  id="paint10_linear_25_3143"
                  x1="0.221191"
                  y1="12.9782"
                  x2="633.721"
                  y2="12.9781"
                  gradientUnits="userSpaceOnUse"
                >
                  <stop stop-color="#B3B3B3" />
                  <stop offset="1" stop-color="#808080" />
                </linearGradient>
                <linearGradient
                  id="paint11_linear_25_3143"
                  x1="0.221191"
                  y1="12.9782"
                  x2="633.721"
                  y2="12.9781"
                  gradientUnits="userSpaceOnUse"
                >
                  <stop stop-color="#B3B3B3" />
                  <stop offset="1" stop-color="#808080" />
                </linearGradient>
                <linearGradient
                  id="paint12_linear_25_3143"
                  x1="0.221191"
                  y1="12.9782"
                  x2="633.721"
                  y2="12.9781"
                  gradientUnits="userSpaceOnUse"
                >
                  <stop stop-color="#B3B3B3" />
                  <stop offset="1" stop-color="#808080" />
                </linearGradient>
                <linearGradient
                  id="paint13_linear_25_3143"
                  x1="0.221191"
                  y1="12.9782"
                  x2="633.721"
                  y2="12.9781"
                  gradientUnits="userSpaceOnUse"
                >
                  <stop stop-color="#B3B3B3" />
                  <stop offset="1" stop-color="#808080" />
                </linearGradient>
                <linearGradient
                  id="paint14_linear_25_3143"
                  x1="0.221191"
                  y1="12.9782"
                  x2="633.721"
                  y2="12.9781"
                  gradientUnits="userSpaceOnUse"
                >
                  <stop stop-color="#B3B3B3" />
                  <stop offset="1" stop-color="#808080" />
                </linearGradient>
                <linearGradient
                  id="paint15_linear_25_3143"
                  x1="0.221191"
                  y1="12.9782"
                  x2="633.721"
                  y2="12.9781"
                  gradientUnits="userSpaceOnUse"
                >
                  <stop stop-color="#B3B3B3" />
                  <stop offset="1" stop-color="#808080" />
                </linearGradient>
                <linearGradient
                  id="paint16_linear_25_3143"
                  x1="0.221191"
                  y1="12.9782"
                  x2="633.721"
                  y2="12.9781"
                  gradientUnits="userSpaceOnUse"
                >
                  <stop stop-color="#B3B3B3" />
                  <stop offset="1" stop-color="#808080" />
                </linearGradient>
                <linearGradient
                  id="paint17_linear_25_3143"
                  x1="0.221191"
                  y1="12.9782"
                  x2="633.721"
                  y2="12.9781"
                  gradientUnits="userSpaceOnUse"
                >
                  <stop stop-color="#B3B3B3" />
                  <stop offset="1" stop-color="#808080" />
                </linearGradient>
                <linearGradient
                  id="paint18_linear_25_3143"
                  x1="0.221191"
                  y1="12.9782"
                  x2="633.721"
                  y2="12.9781"
                  gradientUnits="userSpaceOnUse"
                >
                  <stop stop-color="#B3B3B3" />
                  <stop offset="1" stop-color="#808080" />
                </linearGradient>
                <linearGradient
                  id="paint19_linear_25_3143"
                  x1="0.221191"
                  y1="12.9782"
                  x2="633.721"
                  y2="12.9781"
                  gradientUnits="userSpaceOnUse"
                >
                  <stop stop-color="#B3B3B3" />
                  <stop offset="1" stop-color="#808080" />
                </linearGradient>
                <linearGradient
                  id="paint20_linear_25_3143"
                  x1="0.221191"
                  y1="12.9782"
                  x2="633.721"
                  y2="12.9781"
                  gradientUnits="userSpaceOnUse"
                >
                  <stop stop-color="#B3B3B3" />
                  <stop offset="1" stop-color="#808080" />
                </linearGradient>
                <clipPath id="clip0_25_3143">
                  <rect width="630.444" height="25.812" fill="white" />
                </clipPath>
              </defs>
            </svg>